<?xml version="1.0" standalone="no"?>
<!DOCTYPE svg PUBLIC "-//W3C//DTD SVG 20010904//EN"
 "http://www.w3.org/TR/2001/REC-SVG-20010904/DTD/svg10.dtd">
<svg version="1.0" xmlns="http://www.w3.org/2000/svg"
 width="126.000000pt" height="126.000000pt" viewBox="0 0 126.000000 126.000000"
 preserveAspectRatio="xMidYMid meet">
<metadata>
Created by potrace 1.14, written by Peter Selinger 2001-2017
</metadata>
<g transform="translate(0.000000,126.000000) scale(0.100000,-0.100000)"
fill="#000000" stroke="none">
<path d="M0 630 l0 -560 420 0 420 0 0 70 0 70 144 0 c156 0 198 9 235 49 32
36 41 63 41 126 0 62 -4 65 -92 65 -54 0 -66 -4 -118 -41 l-59 -41 -60 42
c-36 25 -67 40 -76 37 -12 -5 -15 1 -15 28 l0 35 207 2 c194 3 208 4 211 22 2
10 -2 22 -10 27 -7 5 -102 9 -210 9 l-198 0 0 30 0 30 198 0 c108 0 203 4 211
9 21 13 6 115 -28 187 -60 129 -205 223 -343 224 l-38 0 0 70 0 70 -420 0
-420 0 0 -560z m1007 329 c93 -45 170 -143 187 -236 l6 -33 -180 0 -180 0 0
45 c0 31 5 47 15 51 9 4 15 19 15 40 0 22 -6 37 -15 40 -11 5 -15 22 -15 66
l0 61 60 -6 c33 -3 81 -15 107 -28z m-87 -614 c35 -25 69 -45 74 -45 6 0 38
21 70 45 46 35 68 45 98 45 36 0 38 -2 38 -31 0 -20 -10 -40 -29 -60 l-29 -29
-151 0 -151 0 0 60 c0 33 4 60 8 60 4 0 37 -20 72 -45z"/>
<path d="M967 864 c-16 -16 -7 -63 14 -75 28 -15 41 0 37 42 -2 25 -8 35 -23
37 -12 2 -24 0 -28 -4z"/>
</g>
</svg>
